<svg width="65" height="59" viewBox="0 0 65 59" xmlns="http://www.w3.org/2000/svg"><title>poly-bg-green</title><defs><linearGradient x1="-9.385%" y1="-38.052%" x2="109.014%" y2="123.247%" id="a"><stop stop-color="#86E8CF" offset="0%"/><stop stop-color="#3BC4A1" offset="100%"/></linearGradient></defs><path d="M3281.05 953.55l12.283-21.5a8.058 8.058 0 0 1 7-4.05h24.334a8.058 8.058 0 0 1 7 4.05l12.283 21.5c1.4 2.45 1.4 5.45 0 7.9l-12.283 21.5a8.058 8.058 0 0 1-7 4.05h-24.334a8.058 8.058 0 0 1-7-4.05l-12.283-21.5a7.957 7.957 0 0 1 0-7.9z" fill="url(#a)" transform="translate(-3280 -928)" fill-rule="evenodd" opacity=".2"/></svg>