<svg width="93" height="104" viewBox="0 0 93 104" fill="none" xmlns="http://www.w3.org/2000/svg">
<path d="M38 19.7735C44.188 16.2008 51.812 16.2008 58 19.7735L76.9711 30.7265C83.1592 34.2992 86.9711 40.9017 86.9711 48.047V69.953C86.9711 77.0983 83.1592 83.7008 76.9711 87.2735L58 98.2265C51.812 101.799 44.188 101.799 38 98.2265L19.0289 87.2735C12.8408 83.7008 9.02886 77.0983 9.02886 69.953L9.02886 48.047C9.02886 40.9017 12.8408 34.2992 19.0289 30.7265L38 19.7735Z" fill="#00B0FE"/>
<path d="M45.2234 55.4394C40.9598 56.6905 38.0286 60.599 38.0224 65.0425V74.0523C38.0224 74.6053 38.4704 75.0537 39.0232 75.0537H57.044C57.597 75.0537 58.045 74.6053 58.045 74.0523V65.0425C58.0384 60.599 55.1072 56.6905 50.8442 55.4394C53.8827 54.1092 55.5724 50.8309 54.8932 47.5842C54.2137 44.3369 51.3508 42.0117 48.0336 42.0117C44.7164 42.0117 41.8539 44.3369 41.1742 47.5842C40.4948 50.8309 42.1847 54.1092 45.2234 55.4394ZM56.0429 65.0425V73.051H40.0247V65.0425C40.0247 60.6187 43.6102 57.0329 48.0336 57.0329C52.4564 57.0329 56.0429 60.6187 56.0429 65.0425ZM48.0336 44.0183C50.798 44.0183 53.0393 46.2594 53.0393 49.024C53.0393 51.7886 50.798 54.0295 48.0336 54.0295C45.2688 54.0295 43.0279 51.7886 43.0279 49.024C43.0317 46.2606 45.2706 44.0217 48.0336 44.0183Z" fill="white"/>
<path d="M69.4701 74.8893L69.5076 74.8006L68.9478 74.5645C68.7511 74.4605 68.5453 74.3732 68.3336 74.3046L67.6631 74.0226L67.613 74.1414C66.7252 74.0207 65.8227 74.1906 65.0397 74.6263L61.484 71.0699L60.0681 72.4856L63.6163 76.0338C63.2492 76.645 63.0539 77.344 63.0505 78.0569C63.0561 78.2488 63.0742 78.4399 63.1069 78.6286L63.0204 78.6649L63.207 79.1057C63.2998 79.4528 63.4391 79.7844 63.6221 80.0927L63.7986 80.5098L63.8829 80.4739C63.9875 80.6196 64.1011 80.7577 64.2243 80.8884C65.2298 81.9293 66.7185 82.3462 68.1186 81.9807C69.5187 81.6136 70.6126 80.5202 70.9781 79.1206C71.3451 77.7203 70.9273 76.2311 69.8868 75.2255C69.7563 75.1037 69.6172 74.9911 69.4701 74.8893ZM68.4689 79.4729C67.677 80.2294 66.4297 80.2294 65.6376 79.4729C64.8554 78.6906 64.8554 77.4228 65.6372 76.641C66.4197 75.8588 67.6872 75.8588 68.4689 76.641C69.2515 77.4228 69.2515 78.6906 68.4689 79.4729Z" fill="white"/>
<path d="M75.0645 55.0309C74.8722 55.0357 74.6803 55.0556 74.4906 55.0887L74.4366 54.9608L73.5627 55.3312C73.5247 55.347 73.4864 55.3619 73.4493 55.3793L72.5873 55.7426L72.6415 55.8697C71.934 56.4099 71.4273 57.172 71.2021 58.0341H66.0545V60.0366H71.2021C71.4273 60.9003 71.9352 61.6636 72.6457 62.205L72.5912 62.3323L73.4539 62.6954C73.4902 62.7124 73.5285 62.7275 73.5667 62.7437L74.4366 63.1101L74.4906 62.9816C75.9728 63.1984 77.4511 62.5685 78.3215 61.3495C79.1914 60.1301 79.3074 58.5273 78.6209 57.1959C77.9349 55.8645 76.5625 55.0293 75.0645 55.0309ZM75.0645 61.0374C73.9587 61.0374 73.0623 60.1411 73.0623 59.0353C73.0623 57.9297 73.9587 57.0329 75.0645 57.0329C76.1703 57.0329 77.0665 57.9297 77.0665 59.0353C77.0665 60.1411 76.1703 61.0374 75.0645 61.0374Z" fill="white"/>
<path d="M63.0204 39.4058L63.1069 39.4425C63.0742 39.631 63.0561 39.8221 63.0505 40.0138C63.0539 40.7272 63.2492 41.4257 63.6163 42.0371L60.0681 45.5849L61.484 47.0007L65.0318 43.4526C65.6428 43.82 66.3422 44.0147 67.0552 44.0183C67.247 44.0133 67.4379 43.9944 67.6268 43.9619L67.6631 44.048L68.1047 43.8623C68.4506 43.7696 68.7826 43.6297 69.0907 43.4466L69.5076 43.2702L69.4721 43.1861C69.6174 43.0815 69.7563 42.9677 69.8868 42.8448C71.4498 41.2812 71.4498 38.746 69.8868 37.1824C68.3023 35.6683 65.8078 35.6683 64.2243 37.1824C64.1011 37.3126 63.9875 37.4511 63.8829 37.5971L63.7986 37.5609L63.6221 37.978C63.4391 38.2864 63.2998 38.618 63.207 38.9646L63.0204 39.4058ZM65.6396 38.5981C66.1419 38.0776 66.8863 37.8684 67.5867 38.0521C68.2864 38.2354 68.8338 38.7815 69.017 39.4819C69.2005 40.1824 68.9909 40.9259 68.4709 41.4293C67.6786 42.1863 66.4319 42.1863 65.6396 41.4293C64.858 40.6471 64.858 39.3801 65.6396 38.5981Z" fill="white"/>
<path d="M56.3194 36.6055L57.0962 34.7614L58.7654 35.4648L57.9882 37.309L56.3194 36.6055Z" fill="white"/>
<path d="M53.0005 35.181L53.779 33.3361L55.4494 34.0407L54.6712 35.8851L53.0005 35.181Z" fill="white"/>
<path d="M59.6568 38.0144L60.4336 36.1707L62.1022 36.8737L61.3256 38.7169L59.6568 38.0144Z" fill="white"/>
<path d="M71.1831 65.6723L71.8876 64.0025L73.7321 64.7813L73.0281 66.4506L71.1831 65.6723Z" fill="white"/>
<path d="M68.3675 72.3521L69.0718 70.6812L70.9167 71.4596L70.2119 73.1297L68.3675 72.3521Z" fill="white"/>
<path d="M69.7746 69.0118L70.4791 67.3428L72.3238 68.1208L71.6196 69.7904L69.7746 69.0118Z" fill="white"/>
<path d="M37.2442 82.6082L38.0206 80.7641L39.6896 81.4672L38.913 83.3111L37.2442 82.6082Z" fill="white"/>
<path d="M40.5809 84.018L41.3577 82.1732L43.0261 82.8771L42.2499 84.7212L40.5809 84.018Z" fill="white"/>
<path d="M33.9378 81.214L34.7163 79.3689L36.3871 80.0734L35.6089 81.9183L33.9378 81.214Z" fill="white"/>
<path d="M33.0462 78.6649L32.9601 78.6286C32.9926 78.4399 33.0119 78.2488 33.0165 78.0569C33.0131 77.344 32.8178 76.645 32.4509 76.0338L35.9991 72.4856L34.5832 71.0699L31.0271 74.6263C30.2443 74.1906 29.342 74.0207 28.4542 74.1414L28.4041 74.0226L27.7336 74.3056C27.5219 74.3732 27.3159 74.4605 27.1194 74.5645L26.5592 74.8006L26.5969 74.8893C26.4498 74.9911 26.3111 75.1037 26.1806 75.2255C25.1399 76.2311 24.7215 77.7203 25.0887 79.1206C25.4554 80.5202 26.5487 81.6136 27.9488 81.9807C29.3485 82.3462 30.8378 81.9293 31.8437 80.8884C31.9659 80.7577 32.0797 80.6196 32.1845 80.4739L32.2686 80.5098L32.4447 80.0933C32.6279 79.7846 32.7678 79.4528 32.8598 79.1057L33.0462 78.6649ZM30.4276 79.4729C29.6351 80.2294 28.388 80.2294 27.5965 79.4729C26.8143 78.6906 26.8143 77.4228 27.5957 76.641C28.378 75.8588 29.6461 75.8588 30.4276 76.641C31.2098 77.4228 31.2098 78.6906 30.4276 79.4729Z" fill="white"/>
<path d="M23.7422 49.9496L24.4465 48.2803L26.2918 49.0589L25.5873 50.7284L23.7422 49.9496Z" fill="white"/>
<path d="M22.3345 53.2904L23.0391 51.6202L24.8843 52.3984L24.1794 54.0688L22.3345 53.2904Z" fill="white"/>
<path d="M25.1509 46.6109L25.8548 44.9417L27.7001 45.7197L26.9954 47.3891L25.1509 46.6109Z" fill="white"/>
<path d="M22.3341 64.7797L24.1788 64.0015L24.8839 65.6718L23.0389 66.4502L22.3341 64.7797Z" fill="white"/>
<path d="M25.1509 71.4603L26.9954 70.6823L27.7001 72.3513L25.8548 73.1295L25.1509 71.4603Z" fill="white"/>
<path d="M23.7434 68.12L25.5879 67.3418L26.292 69.0114L24.4472 69.7896L23.7434 68.12Z" fill="white"/>
<path d="M59.6807 80.0722L61.3505 79.3682L62.1289 81.2127L60.4589 81.9172L59.6807 80.0722Z" fill="white"/>
<path d="M52.9999 82.89L54.6702 82.1852L55.4484 84.0301L53.778 84.7353L52.9999 82.89Z" fill="white"/>
<path d="M56.34 81.4809L58.0096 80.7767L58.7883 82.622L57.1182 83.3257L56.34 81.4809Z" fill="white"/>
<path d="M51.7376 84.5645C51.7219 84.5261 51.7069 84.4882 51.6894 84.4515L51.3265 83.5891L51.1994 83.6433C50.6589 82.9354 49.8967 82.4287 49.035 82.2039V77.0557H47.0322V82.2039C46.1687 82.4293 45.4051 82.9372 44.8639 83.6473L44.7367 83.593L44.3732 84.4555C44.3569 84.4922 44.3417 84.5299 44.3256 84.5685L43.9585 85.4384L44.0873 85.4922C43.8166 87.0641 44.504 88.646 45.8375 89.5208C47.1709 90.3953 48.8961 90.3953 50.2295 89.5208C51.5629 88.646 52.2508 87.0641 51.9801 85.4922L52.1081 85.4384L51.7376 84.5645ZM48.0336 88.0685C46.928 88.0685 46.0318 87.1721 46.0318 86.0663C46.0318 84.9603 46.928 84.0641 48.0336 84.0641C49.1392 84.0641 50.036 84.9603 50.036 86.0663C50.036 87.1721 49.1392 88.0685 48.0336 88.0685Z" fill="white"/>
<path d="M68.3665 45.7184L70.211 44.9398L70.9159 46.6109L69.0708 47.3889L68.3665 45.7184Z" fill="white"/>
<path d="M71.1825 52.3984L73.0277 51.6202L73.7319 53.2896L71.8868 54.0678L71.1825 52.3984Z" fill="white"/>
<path d="M69.7752 49.0579L71.6204 48.2799L72.3238 49.9491L70.4791 50.7274L69.7752 49.0579Z" fill="white"/>
<path d="M44.3294 33.5061C44.3455 33.5442 44.3607 33.5826 44.3774 33.6189L44.7407 34.4814L44.8682 34.4272C45.4085 35.135 46.1707 35.6416 47.0322 35.8666V41.0146H49.035V35.8666C49.8987 35.6414 50.6623 35.1338 51.203 34.4232L51.3305 34.4776L51.6938 33.6149C51.7109 33.5784 51.7255 33.5404 51.742 33.5023L52.1081 32.6321L51.9801 32.5783C52.0134 32.3887 52.0322 32.197 52.0381 32.0045C52.0381 29.7929 50.2452 28 48.0336 28C45.8224 28 44.0289 29.7929 44.0289 32.0045C44.0347 32.197 44.054 32.3887 44.0873 32.5783L43.9585 32.6321L44.3294 33.5061ZM48.0336 30.0024C49.1392 30.0024 50.036 30.8987 50.036 32.0045C50.036 33.1101 49.1392 34.0071 48.0336 34.0071C46.928 34.0071 46.0318 33.1101 46.0318 32.0045C46.0318 30.8987 46.928 30.0024 48.0336 30.0024Z" fill="white"/>
<path d="M33.9387 36.8564L35.6081 36.1519L36.3861 37.9969L34.7169 38.7009L33.9387 36.8564Z" fill="white"/>
<path d="M40.6186 34.0412L42.2878 33.3375L43.0662 35.1819L41.3966 35.8865L40.6186 34.0412Z" fill="white"/>
<path d="M37.2793 35.4489L38.949 34.7452L39.7272 36.5894L38.0575 37.294L37.2793 35.4489Z" fill="white"/>
<path d="M28.5742 59H17.0215V22.2227L5.67383 25.5381V16.7881L27.5146 9.23438H28.5742V59Z" fill="#6EFFCB"/>
</svg>
