<svg width="97" height="104" viewBox="0 0 97 104" fill="none" xmlns="http://www.w3.org/2000/svg">
<path d="M42 19.7735C48.188 16.2008 55.812 16.2008 62 19.7735L80.9711 30.7265C87.1592 34.2992 90.9711 40.9017 90.9711 48.047V69.953C90.9711 77.0983 87.1592 83.7008 80.9711 87.2735L62 98.2265C55.812 101.799 48.188 101.799 42 98.2265L23.0289 87.2735C16.8408 83.7008 13.0289 77.0983 13.0289 69.953L13.0289 48.047C13.0289 40.9017 16.8408 34.2992 23.0289 30.7265L42 19.7735Z" fill="#00B0FE"/>
<path d="M73.1533 71.8448C74.6081 70.8035 75.5585 69.1006 75.5585 67.1791C75.5585 64.0169 72.9858 61.4442 69.8235 61.4442C66.6613 61.4442 64.0886 64.0169 64.0886 67.1791C64.0886 69.1012 65.0396 70.8046 66.4951 71.8457C63.6411 73.1229 61.647 75.9886 61.647 79.3122C61.647 79.8033 62.0452 80.2014 62.5362 80.2014C63.0273 80.2014 63.4255 79.8033 63.4255 79.3122C63.4255 75.7843 66.2956 72.9141 69.8235 72.9141C73.3515 72.9141 76.2216 75.7843 76.2216 79.3122C76.2216 79.8033 76.6198 80.2014 77.1108 80.2014C77.6019 80.2014 78.0001 79.8033 78.0001 79.3122C77.9999 75.9888 76.0068 73.1222 73.1533 71.8448ZM69.8235 71.1357C67.6418 71.1357 65.867 69.3608 65.867 67.1791C65.867 64.9975 67.6419 63.2226 69.8235 63.2226C72.0053 63.2226 73.7801 64.9975 73.7801 67.1791C73.7801 69.3608 72.0053 71.1357 69.8235 71.1357Z" fill="white"/>
<path d="M58.1729 33.2264C56.621 31.6961 54.563 30.8688 52.384 30.9009C47.9341 30.9634 44.3618 34.6366 44.4206 39.0889C44.448 41.1579 45.2565 43.1158 46.6971 44.6022C47.6776 45.6139 48.2174 46.9208 48.2174 48.2825V49.3138C48.2174 51.3939 49.9097 53.0861 51.9898 53.0861H53.01C55.0902 53.0861 56.7824 51.3939 56.7824 49.3138V48.2824C56.7824 46.9188 57.3203 45.6138 58.2971 44.608C59.7692 43.0921 60.58 41.0933 60.58 38.9799C60.58 36.8003 59.7252 34.7571 58.1729 33.2264ZM55.0041 49.3139C55.0041 50.4133 54.1096 51.3078 53.0101 51.3078H51.9899C50.8904 51.3078 49.996 50.4133 49.996 49.3139V49.1718H55.0042V49.3139H55.0041ZM57.0214 43.3693C55.9334 44.4897 55.2561 45.894 55.063 47.3935H53.3891V42.2668L56.0207 39.6352C56.3679 39.288 56.3679 38.7249 56.0207 38.3778C55.6735 38.0305 55.1104 38.0305 54.7632 38.3778L52.4999 40.6412L50.2367 38.3778C49.8895 38.0305 49.3264 38.0305 48.9792 38.3778C48.632 38.725 48.632 39.2881 48.9792 39.6352L51.6108 42.2668V47.3935H49.9368C49.7431 45.8955 49.0643 44.4896 47.9742 43.3647C46.8507 42.2055 46.2204 40.6786 46.199 39.0655C46.153 35.5928 48.9389 32.7279 52.4091 32.6791C52.4396 32.6787 52.47 32.6785 52.5005 32.6785C54.1678 32.6785 55.7357 33.3207 56.9244 34.4928C58.1351 35.6865 58.8017 37.2802 58.8017 38.9802C58.8016 40.6282 58.1694 42.187 57.0214 43.3693Z" fill="white"/>
<path d="M44.0479 53.3467C43.7008 52.9994 43.1378 52.9994 42.7905 53.3467L37.4556 58.6815C37.1084 59.0287 37.1084 59.5917 37.4556 59.939C37.6291 60.1127 37.8568 60.1995 38.0844 60.1995C38.3119 60.1995 38.5395 60.1127 38.7131 59.939L44.0479 54.6041C44.3952 54.257 44.3952 53.6939 44.0479 53.3467Z" fill="white"/>
<path d="M67.5443 58.6815L62.2095 53.3467C61.8623 52.9994 61.2994 52.9994 60.952 53.3467C60.6048 53.6938 60.6048 54.2568 60.952 54.6041L66.2869 59.939C66.4604 60.1127 66.6881 60.1995 66.9156 60.1995C67.1431 60.1995 67.3707 60.1127 67.5443 59.939C67.8916 59.5918 67.8916 59.0288 67.5443 58.6815Z" fill="white"/>
<path d="M52.4999 55.2047C52.0089 55.2047 51.6107 55.6028 51.6107 56.0939V59.488C51.6107 59.9791 52.0089 60.3772 52.4999 60.3772C52.991 60.3772 53.3891 59.9791 53.3891 59.488V56.0939C53.3891 55.6028 52.991 55.2047 52.4999 55.2047Z" fill="white"/>
<path d="M67.7944 66.0744C68.2855 66.0744 68.6836 65.6763 68.6836 65.1852C68.6836 64.6941 68.2855 64.296 67.7944 64.296C67.3033 64.296 66.9052 64.6941 66.9052 65.1852C66.9052 65.6763 67.3033 66.0744 67.7944 66.0744Z" fill="white"/>
<path d="M71.0547 66.0744C71.5458 66.0744 71.9439 65.6763 71.9439 65.1852C71.9439 64.6941 71.5458 64.296 71.0547 64.296C70.5636 64.296 70.1655 64.6941 70.1655 65.1852C70.1655 65.6763 70.5636 66.0744 71.0547 66.0744Z" fill="white"/>
<path d="M55.8298 71.8448C57.2846 70.8035 58.235 69.1006 58.235 67.1791C58.235 64.0169 55.6623 61.4442 52.5001 61.4442C49.3378 61.4442 46.7651 64.0169 46.7651 67.1791C46.7651 69.1012 47.7161 70.8046 49.1716 71.8457C46.3176 73.1229 44.3235 75.9886 44.3235 79.3122C44.3235 79.8033 44.7217 80.2014 45.2128 80.2014C45.7038 80.2014 46.102 79.8033 46.102 79.3122C46.102 75.7843 48.9721 72.9141 52.5001 72.9141C56.028 72.9141 58.8981 75.7843 58.8981 79.3122C58.8981 79.8033 59.2963 80.2014 59.7874 80.2014C60.2784 80.2014 60.6766 79.8033 60.6766 79.3122C60.6764 75.9888 58.6833 73.1222 55.8298 71.8448ZM52.5 71.1357C50.3182 71.1357 48.5434 69.3608 48.5434 67.1791C48.5434 64.9975 50.3184 63.2225 52.5 63.2225C54.6817 63.2225 56.4565 64.9974 56.4565 67.179C56.4565 69.3608 54.6817 71.1357 52.5 71.1357Z" fill="white"/>
<path d="M50.8704 66.0744C51.3614 66.0744 51.7596 65.6763 51.7596 65.1852C51.7596 64.6941 51.3614 64.296 50.8704 64.296C50.3793 64.296 49.9811 64.6941 49.9811 65.1852C49.9811 65.6763 50.3793 66.0744 50.8704 66.0744Z" fill="white"/>
<path d="M54.1307 66.0744C54.6218 66.0744 55.0199 65.6763 55.0199 65.1852C55.0199 64.6941 54.6218 64.296 54.1307 64.296C53.6396 64.296 53.2415 64.6941 53.2415 65.1852C53.2415 65.6763 53.6396 66.0744 54.1307 66.0744Z" fill="white"/>
<path d="M38.5048 71.8456C39.9603 70.8044 40.9114 69.1011 40.9114 67.179C40.9114 64.0167 38.3387 61.444 35.1764 61.444C32.0141 61.444 29.4414 64.0167 29.4414 67.179C29.4414 69.1005 30.3919 70.8036 31.8467 71.8447C28.9931 73.1222 27 75.9887 27 79.3121C27 79.8032 27.3981 80.2013 27.8892 80.2013C28.3803 80.2013 28.7784 79.8032 28.7784 79.3121C28.7784 75.7841 31.6486 72.914 35.1765 72.914C38.7045 72.914 41.5746 75.7841 41.5746 79.3121C41.5746 79.8032 41.9727 80.2013 42.4638 80.2013C42.9549 80.2013 43.353 79.8032 43.353 79.3121C43.3528 75.9884 41.3588 73.1229 38.5048 71.8456ZM35.1764 71.1357C32.9947 71.1357 31.2198 69.3608 31.2198 67.1791C31.2198 64.9975 32.9948 63.2226 35.1764 63.2226C37.3581 63.2226 39.133 64.9975 39.133 67.1791C39.133 69.3608 37.3581 71.1357 35.1764 71.1357Z" fill="white"/>
<path d="M37.2054 66.0744C37.6965 66.0744 38.0946 65.6763 38.0946 65.1852C38.0946 64.6941 37.6965 64.296 37.2054 64.296C36.7143 64.296 36.3162 64.6941 36.3162 65.1852C36.3162 65.6763 36.7143 66.0744 37.2054 66.0744Z" fill="white"/>
<path d="M33.945 66.0744C34.4361 66.0744 34.8342 65.6763 34.8342 65.1852C34.8342 64.6941 34.4361 64.296 33.945 64.296C33.4539 64.296 33.0558 64.6941 33.0558 65.1852C33.0558 65.6763 33.4539 66.0744 33.945 66.0744Z" fill="white"/>
<path d="M13.5693 29.2979H19.0039C23.3105 29.2979 25.4639 27.1901 25.4639 22.9746C25.4639 21.334 24.9512 20.001 23.9258 18.9756C22.9004 17.9274 21.4535 17.4033 19.585 17.4033C18.0583 17.4033 16.7253 17.8477 15.5859 18.7363C14.4694 19.625 13.9111 20.7301 13.9111 22.0518H2.39258C2.39258 19.4313 3.12174 17.0957 4.58008 15.0449C6.03841 12.9941 8.05501 11.3991 10.6299 10.2598C13.2275 9.09766 16.0758 8.5166 19.1748 8.5166C24.7119 8.5166 29.0641 9.78125 32.2314 12.3105C35.3988 14.8398 36.9824 18.3148 36.9824 22.7354C36.9824 24.8773 36.3216 26.9053 35 28.8193C33.7012 30.7106 31.7985 32.2487 29.292 33.4336C31.9352 34.3906 34.0088 35.849 35.5127 37.8086C37.0166 39.7454 37.7686 42.1494 37.7686 45.0205C37.7686 49.4639 36.0596 53.0186 32.6416 55.6846C29.2236 58.3506 24.7347 59.6836 19.1748 59.6836C15.9163 59.6836 12.8857 59.0684 10.083 57.8379C7.30306 56.5846 5.19531 54.8643 3.75977 52.6768C2.32422 50.4665 1.60645 47.96 1.60645 45.1572H13.1934C13.1934 46.6839 13.8086 48.0055 15.0391 49.1221C16.2695 50.2386 17.7848 50.7969 19.585 50.7969C21.613 50.7969 23.2308 50.2386 24.4385 49.1221C25.6462 47.9827 26.25 46.5358 26.25 44.7812C26.25 42.2747 25.6234 40.4974 24.3701 39.4492C23.1169 38.401 21.3851 37.877 19.1748 37.877H13.5693V29.2979Z" fill="#6EFFCB"/>
</svg>
