<svg width="101" height="104" viewBox="0 0 101 104" fill="none" xmlns="http://www.w3.org/2000/svg">
<path d="M46 19.7735C52.188 16.2008 59.812 16.2008 66 19.7735L84.9711 30.7265C91.1592 34.2992 94.9711 40.9017 94.9711 48.047V69.953C94.9711 77.0983 91.1592 83.7008 84.9711 87.2735L66 98.2265C59.812 101.799 52.188 101.799 46 98.2265L27.0289 87.2735C20.8408 83.7008 17.0289 77.0983 17.0289 69.953V48.047C17.0289 40.9017 20.8408 34.2992 27.0289 30.7265L46 19.7735Z" fill="#00B0FE"/>
<path d="M55.9537 30.0215C55.8999 29.4107 55.3656 28.9577 54.7554 29.0031C54.1409 29.0426 53.673 29.571 53.7093 30.1863C53.7442 30.7814 54.2377 31.2405 54.826 31.2405C54.8482 31.2405 54.8704 31.2398 54.8929 31.2385C54.9037 31.2378 54.9258 31.2362 54.9366 31.2353C55.5526 31.181 56.0081 30.6375 55.9537 30.0215Z" fill="white"/>
<path d="M71.1132 34.5783C70.6541 34.1662 69.9475 34.2031 69.5338 34.6618C69.1197 35.1211 69.1563 35.8291 69.6155 36.2433C69.6216 36.2488 69.6362 36.2617 69.6423 36.267C69.8539 36.4497 70.1142 36.539 70.3733 36.539C70.6877 36.539 71.0003 36.4074 71.2217 36.1507C71.6234 35.6851 71.5741 34.9833 71.1132 34.5783Z" fill="white"/>
<path d="M65.1494 30.7863C64.5854 30.5387 63.9265 30.7932 63.676 31.3568C63.4249 31.922 63.6793 32.5838 64.2444 32.8348L64.2824 32.8512C64.4221 32.9088 64.5668 32.9361 64.7091 32.9361C65.1491 32.9361 65.5665 32.6751 65.7447 32.2432C65.9789 31.6758 65.7125 31.0266 65.1494 30.7863Z" fill="white"/>
<path d="M73.5805 37.1335C73.5789 37.1312 73.57 37.1206 73.5683 37.1185C73.1753 36.6432 72.4752 36.5794 71.9984 36.971C71.5216 37.3623 71.4547 38.0698 71.8443 38.5481C72.0657 38.8196 72.388 38.9605 72.713 38.9605C72.9617 38.9605 73.2119 38.8782 73.4197 38.7088C73.8991 38.3182 73.9711 37.6128 73.5805 37.1335Z" fill="white"/>
<path d="M58.3023 29.0461L58.2911 29.0451C57.6752 28.9915 57.1372 29.4466 57.0827 30.0626C57.0285 30.6787 57.4895 31.2225 58.1055 31.277C58.139 31.2799 58.1723 31.2814 58.2052 31.2814C58.7791 31.2814 59.268 30.8425 59.3194 30.26C59.3737 29.644 58.9184 29.1006 58.3023 29.0461Z" fill="white"/>
<path d="M61.8164 29.6489C61.8062 29.6461 61.785 29.6407 61.7747 29.6381C61.1741 29.4927 60.5696 29.8615 60.4237 30.4623C60.2782 31.0607 60.6442 31.664 61.2408 31.8132C61.3349 31.8376 61.4293 31.8493 61.5223 31.8493C62.0148 31.8492 62.4662 31.5217 62.602 31.0238C62.7647 30.4271 62.413 29.8116 61.8164 29.6489Z" fill="white"/>
<path d="M68.3058 32.4619C68.2926 32.4531 68.2792 32.4446 68.2657 32.4363C67.7404 32.1101 67.051 32.272 66.7248 32.7973C66.3999 33.3199 66.5589 34.0068 67.0782 34.335C67.2654 34.4556 67.4756 34.5135 67.6835 34.5135C68.0453 34.5135 68.4005 34.3385 68.6163 34.0147C68.9593 33.5002 68.8203 32.8049 68.3058 32.4619Z" fill="white"/>
<path d="M77.5811 52.4216C76.9671 52.3589 76.4158 52.8056 76.3526 53.4208L76.3499 53.4482C76.2956 54.0642 76.7505 54.6112 77.3667 54.6655C77.4004 54.6685 77.4338 54.67 77.467 54.67C78.0405 54.67 78.5288 54.2343 78.5802 53.652L77.4664 53.5354L78.5803 53.6501C78.6437 53.0349 78.1963 52.4849 77.5811 52.4216Z" fill="white"/>
<path d="M76.2129 59.0052C75.6494 58.7506 74.9861 59.0011 74.7315 59.5647L74.7159 59.6007C74.4754 60.1704 74.7425 60.8273 75.3123 61.0677C75.4545 61.1276 75.6018 61.156 75.7471 61.156C76.1799 61.1559 76.5914 60.9035 76.7744 60.4828C77.026 59.92 76.7754 59.259 76.2129 59.0052Z" fill="white"/>
<path d="M75.6163 40.0457C75.6113 40.0367 75.6004 40.0183 75.5951 40.0095C75.2758 39.4802 74.5882 39.3109 74.0588 39.6299C73.5313 39.9479 73.3605 40.6329 73.6747 41.1617C73.8823 41.518 74.2572 41.7178 74.6431 41.7178C74.8301 41.7178 75.0198 41.6707 75.1941 41.572C75.7322 41.267 75.9212 40.5837 75.6163 40.0457Z" fill="white"/>
<path d="M78.657 50.1147L78.6563 50.1035C78.6199 49.4862 78.0911 49.0203 77.4729 49.0571C76.8556 49.0934 76.3848 49.6289 76.4211 50.2462C76.4561 50.8413 76.9495 51.3002 77.538 51.3002C77.56 51.3002 77.5824 51.2996 77.6048 51.2982C78.2222 51.262 78.6932 50.732 78.657 50.1147Z" fill="white"/>
<path d="M77.1531 43.2079L76.1091 43.6128L77.1521 43.2053C76.927 42.6292 76.2777 42.3446 75.7016 42.5697C75.1256 42.7949 74.8409 43.4443 75.066 44.0204C75.0675 44.0241 75.0731 44.0383 75.0747 44.042C75.2502 44.4777 75.6682 44.741 76.1107 44.741C76.2491 44.741 76.3899 44.7152 76.5263 44.6608C77.0992 44.4327 77.3787 43.7816 77.1531 43.2079Z" fill="white"/>
<path d="M78.1839 46.6195C78.1824 46.6121 78.1785 46.5937 78.1768 46.5862C78.0396 45.9835 77.4404 45.607 76.8374 45.7436C76.236 45.88 75.8585 46.478 75.9921 47.0796C76.1043 47.6045 76.5683 47.9653 77.086 47.9653C77.1608 47.9653 77.2368 47.9578 77.313 47.9422C77.9187 47.8174 78.3087 47.2253 78.1839 46.6195Z" fill="white"/>
<path d="M77.1479 55.7624C76.549 55.6079 75.9391 55.9662 75.7848 56.5653C75.6221 57.1619 75.9738 57.7775 76.5705 57.9402C76.6691 57.967 76.7682 57.9799 76.8658 57.9799C77.3582 57.98 77.8096 57.6525 77.9454 57.1544C77.9469 57.1494 77.951 57.1334 77.9524 57.1283C78.1066 56.5295 77.7468 55.9167 77.1479 55.7624Z" fill="white"/>
<path d="M35.8063 45.2365C35.2049 45.0911 34.5999 45.46 34.4541 46.0609L34.4516 46.0717C34.3059 46.6728 34.6763 47.2727 35.2773 47.4184C35.3651 47.4397 35.453 47.4499 35.5395 47.4499C36.0457 47.4499 36.5063 47.1018 36.6307 46.5886C36.7763 45.9875 36.4073 45.3823 35.8063 45.2365Z" fill="white"/>
<path d="M37.0312 42.0936C36.4609 41.8543 35.8047 42.1231 35.5655 42.6931L35.562 42.7013C35.3216 43.2711 35.5887 43.9278 36.1584 44.1684C36.3006 44.2283 36.448 44.2567 36.5932 44.2567C37.0299 44.2567 37.4451 43.9995 37.6255 43.5718L37.6308 43.5593C37.87 42.989 37.6015 42.3328 37.0312 42.0936Z" fill="white"/>
<path d="M36.6058 56.092C36.4687 55.4889 35.8686 55.1108 35.2656 55.2482C34.6626 55.3853 34.2848 55.9853 34.4219 56.5883C34.4231 56.5935 34.4268 56.6096 34.4281 56.6148C34.5524 57.1276 35.0116 57.4732 35.5172 57.4732C35.6041 57.4732 35.6926 57.4629 35.7808 57.4417C36.3818 57.2959 36.7515 56.693 36.6058 56.092Z" fill="white"/>
<path d="M39.0399 61.9629C38.7203 61.4334 38.0321 61.263 37.5025 61.5827C36.973 61.9023 36.8028 62.5906 37.1222 63.1201C37.1248 63.1241 37.1331 63.1377 37.1356 63.1416C37.3479 63.4836 37.7146 63.6719 38.0897 63.6719C38.2911 63.6719 38.4949 63.6176 38.6783 63.5037C39.2037 63.1775 39.3661 62.4884 39.0399 61.9629Z" fill="white"/>
<path d="M36.1141 52.9318C36.0687 52.315 35.5324 51.852 34.9151 51.8972C34.2983 51.9425 33.8351 52.4793 33.8804 53.0961L33.8813 53.1071C33.9247 53.6957 34.4149 54.1394 34.9956 54.1394C35.0235 54.1394 35.0516 54.1382 35.0798 54.1362C35.6966 54.091 36.1594 53.5486 36.1141 52.9318Z" fill="white"/>
<path d="M35.1053 48.5321C34.4902 48.4778 33.9458 48.9331 33.8914 49.5491C33.891 49.5546 33.8896 49.571 33.8892 49.5765C33.8438 50.1933 34.3069 50.7327 34.9236 50.7781C34.9517 50.7802 34.9796 50.7811 35.0074 50.7811C35.5883 50.7811 36.079 50.3346 36.1224 49.746C36.1767 49.13 35.7214 48.5865 35.1053 48.5321Z" fill="white"/>
<path d="M52.6029 30.3716C52.4747 29.7668 51.8809 29.3802 51.2752 29.5085L51.2365 29.5173C50.6352 29.6608 50.2651 30.2644 50.4085 30.8657C50.531 31.3802 50.9909 31.7261 51.4977 31.7261C51.5814 31.7261 51.6664 31.7165 51.7514 31.6968C52.3498 31.5635 52.7304 30.9727 52.6029 30.3716Z" fill="white"/>
<path d="M46.2542 32.5503C45.9455 32.0145 45.2607 31.8303 44.7249 32.1392C44.7144 32.1454 44.6943 32.1574 44.6839 32.1638C44.1586 32.4898 43.9977 33.1795 44.3236 33.705C44.5353 34.0465 44.9015 34.2343 45.2763 34.2343C45.4752 34.2343 45.6765 34.1815 45.8583 34.0706C46.3824 33.7578 46.56 33.081 46.2542 32.5503Z" fill="white"/>
<path d="M49.3435 31.2161C49.1264 30.637 48.4808 30.3439 47.9018 30.5608C47.8904 30.565 47.8687 30.5736 47.8575 30.5782C47.2859 30.8141 47.0145 31.4682 47.2502 32.0399C47.4283 32.472 47.8461 32.7329 48.2864 32.7329C48.426 32.7329 48.5679 32.7067 48.705 32.6513C49.273 32.4281 49.5587 31.7895 49.3435 31.2161Z" fill="white"/>
<path d="M43.407 34.3505C43.0119 33.8747 42.3059 33.8093 41.8301 34.2041L41.8135 34.2181C41.3414 34.6175 41.2829 35.3239 41.6823 35.796C41.9038 36.0577 42.2196 36.1924 42.5376 36.1924C42.7932 36.1924 43.0504 36.1054 43.2608 35.9273C43.7366 35.5323 43.8021 34.8263 43.407 34.3505Z" fill="white"/>
<path d="M40.8863 36.5868C40.422 36.1783 39.7144 36.2234 39.3058 36.6876C39.3038 36.6899 39.2944 36.7007 39.2924 36.703C38.889 37.1693 38.942 37.8699 39.4066 38.2753C39.6177 38.4597 39.8791 38.5496 40.1399 38.5496C40.4529 38.5496 40.765 38.4197 40.9872 38.1672C41.3957 37.7029 41.3505 36.9953 40.8863 36.5868Z" fill="white"/>
<path d="M37.5878 59.1218C37.355 58.5489 36.7019 58.273 36.129 58.5058C35.556 58.7386 35.2802 59.3918 35.513 59.9647C35.5146 59.9685 35.5204 59.9826 35.5221 59.9865C35.7019 60.4155 36.1179 60.6742 36.5558 60.6742C36.7001 60.6742 36.8468 60.646 36.988 60.5868C37.5583 60.3476 37.827 59.6921 37.5878 59.1218Z" fill="white"/>
<path d="M38.7374 39.1844C38.212 38.8581 37.5217 39.0197 37.1955 39.5453L37.1895 39.5549C36.8633 40.0804 37.0278 40.7659 37.5533 41.0921C37.7359 41.2054 37.9388 41.2593 38.1394 41.2593C38.5162 41.2593 38.8854 41.0694 39.0983 40.7264C39.4245 40.201 39.2628 39.5106 38.7374 39.1844Z" fill="white"/>
<path d="M84.2132 79.2351H82.4371C82.432 79.2269 82.4277 79.2185 82.4223 79.2104L63.8851 51.7058C63.4969 51.1298 62.9426 50.7038 62.3096 50.4717V47.3505L67.9043 43.8372C68.2549 43.617 68.4555 43.2214 68.4257 42.8084C68.3959 42.3955 68.1408 42.0327 67.7623 41.8649L61.6432 39.1545C61.2969 39.0012 60.8965 39.0332 60.5789 39.2398C60.2615 39.4465 60.07 39.7996 60.07 40.1784V46.7145C60.0698 46.7265 60.0698 46.7386 60.07 46.7505V50.4716C59.437 50.7037 58.8827 51.1297 58.4944 51.7057L50.9014 62.9719L49.0959 60.293C48.4908 59.3952 47.4833 58.8592 46.4005 58.8592C45.3178 58.8592 44.3102 59.3952 43.7052 60.293L30.939 79.2351H29.1198C28.5013 79.2351 28 79.7365 28 80.3548C28 80.9732 28.5013 81.4746 29.1198 81.4746H31.5321C31.5326 81.4746 31.5331 81.4747 31.5336 81.4747C31.5342 81.4747 31.5348 81.4746 31.5354 81.4746H84.2132C84.8317 81.4746 85.333 80.9732 85.333 80.3548C85.333 79.7365 84.8317 79.2351 84.2132 79.2351ZM62.3096 41.8992L64.9305 43.0602L62.3096 44.706V41.8992ZM33.6397 79.2351L45.5625 61.5448C45.7535 61.2615 46.059 61.099 46.4006 61.099C46.7423 61.099 47.0478 61.2615 47.2388 61.5448L49.5512 64.9756L45.5813 70.8659C45.2357 71.3788 45.3712 72.0747 45.8841 72.4203C46.3972 72.7663 47.093 72.6303 47.4385 72.1176L60.3516 52.9575C60.5426 52.6742 60.8481 52.5117 61.1898 52.5117C61.5314 52.5117 61.837 52.6742 62.0279 52.9575L79.7381 79.2351H33.6397Z" fill="white"/>
<path d="M43.677 76.7619C44.2954 76.7619 44.7968 76.2606 44.7968 75.6421C44.7968 75.0237 44.2954 74.5223 43.677 74.5223C43.0585 74.5223 42.5572 75.0237 42.5572 75.6421C42.5572 76.2606 43.0585 76.7619 43.677 76.7619Z" fill="white"/>
<path d="M37.7686 59H3.04199V51.4805L19.0381 34.6641C22.9801 30.1751 24.9512 26.609 24.9512 23.9658C24.9512 21.8239 24.484 20.1947 23.5498 19.0781C22.6156 17.9616 21.2598 17.4033 19.4824 17.4033C17.7279 17.4033 16.3037 18.1553 15.21 19.6592C14.1162 21.1403 13.5693 22.9974 13.5693 25.2305H2.0166C2.0166 22.1771 2.77995 19.363 4.30664 16.7881C5.83333 14.1904 7.95247 12.1624 10.6641 10.7041C13.3757 9.24577 16.4062 8.5166 19.7559 8.5166C25.1335 8.5166 29.2692 9.75846 32.1631 12.2422C35.0798 14.7259 36.5381 18.292 36.5381 22.9404C36.5381 24.9001 36.1735 26.8141 35.4443 28.6826C34.7152 30.5283 33.5758 32.4766 32.0264 34.5273C30.4997 36.5553 28.0273 39.2783 24.6094 42.6963L18.1836 50.1133H37.7686V59Z" fill="#6EFFCB"/>
</svg>
