<svg width="516" height="384" viewBox="0 0 516 384" xmlns="http://www.w3.org/2000/svg"><title>”</title><defs><linearGradient x1="43.507%" y1="27.575%" x2="45.589%" y2="102.734%" id="a"><stop stop-color="#F7FBFB" offset="0%"/><stop stop-color="#FFF" offset="100%"/></linearGradient></defs><path d="M3585.505 771.884c36.074-25.675 62.664-47.256 79.77-64.744 29.752-30.512 44.628-59.163 44.628-85.954 0-8.93-2.418-15.442-7.252-19.535-4.835-4.093-10.041-6.14-15.62-6.14-12.644 1.861-21.012 2.791-25.102 2.791-24.173 0-44.255-8.186-60.247-24.558-15.991-16.372-23.987-37.767-23.987-64.186 0-29.767 8.74-53.302 26.219-70.605 17.479-17.302 40.35-25.953 68.614-25.953 33.098 0 60.618 11.907 82.56 35.72 21.941 23.815 32.912 56.745 32.912 98.792 0 59.535-24.359 114.418-73.077 164.65-29.007 29.396-67.684 57.675-116.03 84.838l-13.388-25.116zm-305.695 0c34.214-23.814 60.06-44.465 77.54-61.954 31.238-31.256 46.858-60.65 46.858-88.186 0-7.442-1.86-13.767-5.579-18.977-4.09-4.837-9.855-7.255-17.293-7.255-12.272 1.86-20.454 2.79-24.545 2.79-24.545 0-44.813-8.186-60.804-24.558S3272 535.42 3272 507.884c0-25.303 8.089-47.442 24.266-66.419 16.177-18.977 39.885-28.465 71.124-28.465 30.496 0 57.272 11.163 80.329 33.488 23.057 22.326 34.586 55.442 34.586 99.35 0 59.534-23.243 113.86-69.73 162.976-29.008 30.512-68.8 59.907-119.377 88.186l-13.388-25.116z" fill="url(#a)" transform="translate(-3272 -413)" fill-rule="evenodd"/></svg>